<svg xmlns="http://www.w3.org/2000/svg" data-name="Слой 1" viewBox="0 0 100 125" x="0px" y="0px"><title>floral_icons</title><path d="M43.43,39.92a0,0,0,0,0,0,0,49.73,49.73,0,0,0-10.64-10,0,0,0,0,0,0,0A91,91,0,0,1,43.43,39.92Z"/><path d="M44.21,40.67l-0.12-.06h0l0.12,0.06h0Z"/><polygon points="38.63 52.39 38.63 52.39 38.63 52.39 38.63 52.39"/><path d="M57.68,39.68h0l0,0Z"/><path d="M57.3,39.86l-0.19.1,0.13,0,0.15-.06H57.3Z"/><path d="M68.89,13.16l0.09,0A0.37,0.37,0,0,1,69,13a0.09,0.09,0,0,1,0,0Z"/><path d="M78,58.41A14.19,14.19,0,0,0,76.25,55a10.27,10.27,0,0,0-2.14-2.09c-2-1.54-4-2.92-6.54-3-1.61-.06-3,0.67-4.56.91a4.38,4.38,0,0,1-2.59-.26,5.19,5.19,0,0,1-1.83-1.79c-0.79-1.09-1.77-2.4-3.26-2.38a7.05,7.05,0,0,0-1.88.31,1,1,0,0,0-.77.55,0.12,0.12,0,0,0,0,.14,2.64,2.64,0,0,0-.76.06q0.88-2.2,1.79-4.39a12.74,12.74,0,0,1,1.15-1.37,0.25,0.25,0,0,0,.17,0c0.7-.35,2-1.1,2.8-0.81a9.05,9.05,0,0,1,1.12.66,13.2,13.2,0,0,1,1.5,1,3.8,3.8,0,0,0,1.91.86,13.19,13.19,0,0,0,2.13-.17,7.89,7.89,0,0,1,3.37.37,10.61,10.61,0,0,1,1.94,1.09c1.15,0.73,2.62.45,3.92,0.64,2.15,0.31,4.44,1.2,5.16,3.45a0.21,0.21,0,0,0,.4-0.09,13.57,13.57,0,0,0-2.67-6.36,5.06,5.06,0,0,0-2-1.44,5.27,5.27,0,0,0-2.23-.19,7,7,0,0,1-3-.87c-1-.46-2-1-3.05-1.4-2.52-1-5.08,0-7.6.6a4.23,4.23,0,0,0-1.09.58,6.24,6.24,0,0,1,.88-0.31c2.46-.65,5.12-1.52,7.59-0.5,1.74,0.72,3.39,1.82,5.25,2.23a10.67,10.67,0,0,0,2.14,0,3.76,3.76,0,0,1,2.25.9,8.8,8.8,0,0,1,2.61,4.73c-0.17-.39-0.37-0.76-0.59-1.14a16.06,16.06,0,0,0-1.2-2.21,5.47,5.47,0,0,0-4.53-1.82,0,0,0,0,0,0,0,6.34,6.34,0,0,1,4.51,2.12,11.35,11.35,0,0,1,1.92,3.53l-0.11-.15-0.12-.2a8.74,8.74,0,0,0-1.93-3.08c-1.59-1.4-4-1.34-5.84-2.17-1.06-.47-2-1.11-3.13-1.5a10.82,10.82,0,0,0-3.17-.58c-1.72-.08-3.47,0-5.21,0a18.82,18.82,0,0,1,2.68-.6A10.25,10.25,0,0,1,68,40.13a0,0,0,0,0,0,0c-2.85-2.06-6.64-1.44-9.9-.44-0.12,0-.24.08-0.36,0.09a1.1,1.1,0,0,1-.33.26h0a0.56,0.56,0,0,0-.18,0,1,1,0,0,1-.37,0h0a0.87,0.87,0,0,1-.06-0.1A9,9,0,0,0,55.15,41a4.42,4.42,0,0,0-.39.27,0.2,0.2,0,0,0-.08.14c-0.16.16-.31,0.33-0.45,0.5q1.88-4.44,3.92-8.82a6.71,6.71,0,0,1,.66-0.52h0.11a33.53,33.53,0,0,1,6.31.2,31.56,31.56,0,0,0,5.8.58,6.6,6.6,0,0,0,4.65-2.78l0,0a0,0,0,0,0,0,0,27.88,27.88,0,0,0,3.16-5.92c0.08-.19-0.19-0.29-0.31-0.15A16.83,16.83,0,0,1,68.2,30.24c-3,.44-6.72.06-9.25,1.85l-0.14,0a0.22,0.22,0,0,0-.18.21l-0.21.18q0.81-1.72,1.65-3.43,0.73-1.48,1.48-2.94a3.81,3.81,0,0,0,1.55-.07,0.18,0.18,0,0,0,.11.14c2.55,1.09,6,.3,8.16-1.21,2.38-1.63,3.84-4.34,6.48-5.61a0.17,0.17,0,0,0-.07-0.31,17.25,17.25,0,0,0-8.34,2.22A22.49,22.49,0,0,0,66,23.87C64.75,24.94,63.3,26.06,61.6,26q1.28-2.49,2.64-4.93H64.3c3.28-.24,4.69-3.77,6.21-6.19l0.36-.59,0,0a0,0,0,0,0,0-.05A10.23,10.23,0,0,0,72.36,11l0-.21,0-.09a0.06,0.06,0,0,0,0-.07C72.74,8.8,72.82,7,73.27,5.2A0.15,0.15,0,0,0,73,5c-1,1-2,2.09-3,3.12v0h0V8.19c-0.42.43-.84,0.86-1.27,1.27a10.15,10.15,0,0,0-1.61,1.84,24.91,24.91,0,0,1-1.57,2.26c-1,1.27-2.51,2.56-2.93,4.19a2.33,2.33,0,0,0,1,2.69c-1,1.57-1.9,3.18-2.8,4.8-0.61-.77-0.21-1.88,0-2.75a9.27,9.27,0,0,0,.38-2.45,8.09,8.09,0,0,0-1.47-4.25A39.31,39.31,0,0,0,56.48,12a10.13,10.13,0,0,1-2.31-4.41c0-.13,0-0.26,0-0.4a0.12,0.12,0,0,0-.1-0.13,0.06,0.06,0,0,0-.08,0,0.12,0.12,0,0,0-.08.11,27.86,27.86,0,0,0,.24,5.41,9.38,9.38,0,0,0,.68,2.3c0.39,1,.67,2,1,3,0.57,1.73,1.08,3.5,1.74,5.2a2.56,2.56,0,0,0,1,1.48c0.53,0.3,1.7.38,2.09,0.94l-0.89,1.64q-1.5,2.8-2.9,5.66a8.68,8.68,0,0,0-1-1.19c-0.88-.91-2-1.5-2.83-2.48A26.45,26.45,0,0,1,51,25.85c-0.81-1.3-1.63-2.59-2.42-3.9S46.85,19.13,46,17.72a19.92,19.92,0,0,1-1.87-3.58c-0.52-1.41-.79-2.93-1.39-4.3A9.1,9.1,0,0,0,42,8.48l0,0a15.08,15.08,0,0,1,1.3,1.8,19.16,19.16,0,0,1,1.45,3.4,32.45,32.45,0,0,0,3.08,6.14A106.33,106.33,0,0,0,56,31.69c0.07,0.08.18,0,.12-0.11h0c0-.18.08-0.36,0.12-0.53a0.07,0.07,0,0,0,0-.1h0q0.08-.4.14-0.8a0.08,0.08,0,0,0,0-.08v0a18.19,18.19,0,0,0-4.78-15A14.1,14.1,0,0,0,49,12.86a19.57,19.57,0,0,1-3-2.46,11.39,11.39,0,0,0-2.58-2.18,11.28,11.28,0,0,1-2.67-1.62,2.83,2.83,0,0,1-.49-0.76,0.13,0.13,0,0,0-.26.06A5.2,5.2,0,0,0,40.8,7.4C41.18,8,41.61,8.58,42,9.2a18.6,18.6,0,0,1,1.31,4,30.55,30.55,0,0,0,3.57,7.15l2.56,4.26c0.63,1,1.25,2.08,1.91,3.1a9.93,9.93,0,0,0,2.85,3.13,8.19,8.19,0,0,1,2.7,2.11q-2.15,4.41-4.09,8.91a3.06,3.06,0,0,0-1-.77,0.14,0.14,0,0,0,0,0,37.78,37.78,0,0,0-3-12.76A34.09,34.09,0,0,0,42,18.37a30,30,0,0,0-4.37-3.67,5.07,5.07,0,0,0-.94-0.6l0,0,0,0-0.33-.18L32.77,11.8,24.64,7.05,22.77,6a0.27,0.27,0,0,0-.35.41,55.55,55.55,0,0,1,3.51,4.44A16.23,16.23,0,0,1,27.43,14,16,16,0,0,0,31,18.67C36.3,24.25,41.76,29.74,45.42,36.6a12.65,12.65,0,0,0,2.52,3.69,2.78,2.78,0,0,0,1.49.61,13.71,13.71,0,0,1,1.88.2,2.78,2.78,0,0,1,1.37,1L52,43.59q-0.68,1.61-1.34,3.24a2.17,2.17,0,0,0-.39-0.32,0.11,0.11,0,0,0,0-.2,5.43,5.43,0,0,1-.86-0.21A49,49,0,0,0,46,41.61c-1.27-1.62-2.56-3.22-3.94-4.74a34.2,34.2,0,0,0-8.72-7.37,0.08,0.08,0,0,0,0-.08q-1.06-1-2.14-1.91a10.33,10.33,0,0,0,1.67-1.3,0.2,0.2,0,0,0-.23-0.33A11.6,11.6,0,0,0,30.59,27l-3-2.59c-1.64-1.43-3.68-3.43-2.66-5.81,0.14-.32-0.33-0.49-0.52-0.25a5.05,5.05,0,0,0-1,3.62,10.53,10.53,0,0,0,1.66,3.91,21,21,0,0,0,1.28,2,7.27,7.27,0,0,0-1.09.47C23.49,29.31,23,31.15,23,33a0.27,0.27,0,0,0,0,.09,2.24,2.24,0,0,0,.32,1.57,4.33,4.33,0,0,0-2.39,2.53,10,10,0,0,0,.2,5.3,0.29,0.29,0,0,0,.22.22,5.19,5.19,0,0,0,.36,2.14c1.2,3,4.48,4.36,7,6l-1.54-.15A3.65,3.65,0,0,0,23.82,52a5.07,5.07,0,0,0-1,2.5l-0.09.05a0,0,0,0,0,0,.07l0,0c0,0.11,0,.22,0,0.34a1.77,1.77,0,0,0-.35.53c-1.1,2.56,2.63,4,4.26,4.83,2.91,1.53,5.87,3,8.82,4.43a18.64,18.64,0,0,0,4.54,2,4.57,4.57,0,0,0,1.75,0,4,4,0,0,1,1.82-.14q-1.86,6-3.39,12c-0.67,2.69-1.3,5.4-1.82,8.12-0.5,2-1.13,7.48-1.19,8.05,0,0.39.56,0.42,0.61,0a103.63,103.63,0,0,1,1.83-10.48c2-7.57,4.4-15.06,7-22.45v0c0.19,1.42,1.54,2.54,2.74,3.23a15.08,15.08,0,0,1,3.09,1.95,18.92,18.92,0,0,1,1.92,2.86c2.59,3.59,8.42,2,10.66,6a0.21,0.21,0,0,0,.37-0.19c-1.52-3.9-7-3-9.85-5.2a12.4,12.4,0,0,1-2.14-2.93,6.48,6.48,0,0,0-2.11-1.83c-1.81-1.05-4.26-2-4.53-4.33q1.09-3.1,2.23-6.18a2.71,2.71,0,0,1,1.07-.3l0,0c1.35,0.53,1.73,1.82,2.09,3.1A22.92,22.92,0,0,1,53,62.14c0.2,2.2.92,4.71,2.95,5.91,2.28,1.34,5,.4,7.42.16a9.54,9.54,0,0,1,7.36,2.67C73.07,73,74.4,76.09,75.61,79A0.24,0.24,0,0,0,76,78.8c-1.1-5.48-3.41-10.86-7.82-14.47a16.81,16.81,0,0,0-7.08-3.46,27.79,27.79,0,0,1-3.8-.87c-1.62-.59-2.43-1.77-3.34-3.16a4.61,4.61,0,0,0-2.51-2.19,3.67,3.67,0,0,0-2.34,0q1.32-3.56,2.73-7.1a2.65,2.65,0,0,1,.78-0.06,0.07,0.07,0,0,0,.06,0l0.38,0a4.51,4.51,0,0,1,.68.31c1.45,0.93,2.24,3.28,3.22,4.5a8.5,8.5,0,0,0,5.31,2.71c2.62,0.46,5.34.22,7.91,1a12.06,12.06,0,0,1,5.46,3.58,12.49,12.49,0,0,1,3.14,6.69c0,0.33.54,0.21,0.5-.11C79,63.67,78.95,60.93,78,58.41ZM63.58,39.72a12,12,0,0,1,3.56.5,24,24,0,0,1,3,1.43,12.28,12.28,0,0,0,2.84.93,8.4,8.4,0,0,1,3,1A6.39,6.39,0,0,1,78,46.4a7.3,7.3,0,0,0-1-1.14,7.87,7.87,0,0,0-2.39-1.79,10.4,10.4,0,0,0-2.78-.79,9.06,9.06,0,0,1-3.34-1.43,4.57,4.57,0,0,0-2.37-.77c-1.22,0-2.42.32-3.62,0-0.67-.2-1.26-0.5-1.9-0.67C61.59,39.73,62.58,39.7,63.58,39.72Zm-4.63.11,0.91,0h0.09c1.08,0.09,1.94.75,3,.95a11.26,11.26,0,0,0,2.65-.05,4.89,4.89,0,0,1,3.1.93A7,7,0,0,0,71,42.7a24.25,24.25,0,0,1,2.82.6,7.46,7.46,0,0,1,2.14,1.19A7.41,7.41,0,0,0,75,44a8.3,8.3,0,0,0-3-.59,4.77,4.77,0,0,1-2.26-.48c-0.48-.27-0.9-0.65-1.38-0.93a5.33,5.33,0,0,0-3.11-.58c-1.38.1-2.77,0.55-4-.4A3.59,3.59,0,0,0,59,39.88a4.38,4.38,0,0,0-.49,0Zm0.62,0.3c0.95,0.24,1.45,1.16,2.33,1.53a5.69,5.69,0,0,0,2.82,0,5.45,5.45,0,0,1,3.91.77A5.08,5.08,0,0,0,71,43.6a16.86,16.86,0,0,1,3.32.39,7.31,7.31,0,0,1,2.93,1.82l0.24,0.32a6.89,6.89,0,0,0-1.79-.93,12,12,0,0,0-2.86-.6,7.46,7.46,0,0,1-2.29-.21c-0.64-.3-1.19-0.79-1.82-1.11a7.18,7.18,0,0,0-2.86-.72c-1,0-2,.14-3,0.17a3.35,3.35,0,0,1-2.25-1,14.85,14.85,0,0,0-1.81-1.18A3.35,3.35,0,0,0,58,40.13,3.61,3.61,0,0,1,59.57,40.13Zm-2.32,0h0ZM69.8,32.64c-1.32-.13-2.67-0.35-4-0.54,1,0.07,2.06.14,3.09,0.16a14,14,0,0,0,4.83-.63A5.5,5.5,0,0,1,69.8,32.64Zm5-2q-0.27.3-.56,0.56a15.21,15.21,0,0,1-6.6.79,16.41,16.41,0,0,0,8.11-2.51A13.78,13.78,0,0,1,74.81,30.63Zm-7.26.09a16.86,16.86,0,0,0,2-.31,17.3,17.3,0,0,0,8.55-4.9,27.37,27.37,0,0,1-2.17,3.76,29.44,29.44,0,0,1-4.94,2,21.49,21.49,0,0,1-5.29.64l-0.75,0c2-.41,4.06-0.7,6.07-1.18a11,11,0,0,0,5.89-3.15,0,0,0,0,0,0,0,14,14,0,0,1-6.52,3.1c-2.12.48-4.33,0.65-6.42,1.23H63.13l-0.38,0c1.59-.35,3.17-0.72,4.76-1Zm-1.62.14a32.46,32.46,0,0,0-3.87.91,14.24,14.24,0,0,0-2,.11A18.55,18.55,0,0,1,65.93,30.86ZM71.7,24a10.15,10.15,0,0,1-1.53,1,12.67,12.67,0,0,1,3-2.34C72.69,23.17,72.21,23.62,71.7,24Zm1.73-1.58a4.58,4.58,0,0,0-1.71,1c-0.7.59-1.43,1.19-2.08,1.84a9.14,9.14,0,0,1-1.41.52c2-1.1,3.32-3.47,5.69-3.87Zm0.73-.72c-2.7.23-4.36,3.12-6.68,4.28a7.94,7.94,0,0,1-.83.11,11.66,11.66,0,0,0,3.16-2.24c1.42-1.25,2.9-2.43,4.8-2.57Zm0.62-.58A7.38,7.38,0,0,0,70.55,23a27.07,27.07,0,0,1-4.46,3.16c-0.29,0-.58,0-0.86,0,1.79-.29,3.17-2,4.47-3.08a10.88,10.88,0,0,1,5.76-2.47Q75.11,20.85,74.78,21.15Zm1-.83a10.77,10.77,0,0,0-5.2,1.85,26.94,26.94,0,0,0-2.48,2.09,7.73,7.73,0,0,1-3.35,1.8H64.56c1.73-.56,3-2.19,4.36-3.31a11.84,11.84,0,0,1,3.37-1.82,36.34,36.34,0,0,1,4-1Zm-7.09,2A19.57,19.57,0,0,1,77,19.5l-0.3.18a16.7,16.7,0,0,0-7.11,2.38,24.68,24.68,0,0,0-2.46,2.14,9.35,9.35,0,0,1-3,1.8l-0.51-.07C65.45,25.25,67,23.38,68.66,22.36Zm-4.08-1.84,0.18-.32a11.25,11.25,0,0,0,3-1.82A5,5,0,0,1,64.58,20.52Zm3.48-2.63A16.51,16.51,0,0,1,64.89,20l0.31-.55c1-.51,2-1.12,3-1.71Zm0.22-.34c-1,.52-2,1-2.95,1.64l0.35-.6c0.84-.69,2-0.85,2.9-1.5Zm0.57-.88c-0.84.8-2.09,1-3,1.62l0.34-.58a5.6,5.6,0,0,1,2-1.07,5.63,5.63,0,0,0,1-.38ZM69.28,16a14.51,14.51,0,0,1-2,.83,4,4,0,0,0-.87.54l0.45-.76c0.85-.61,2-0.63,2.86-1.26Zm0.62-1c-0.78.69-2,.74-2.87,1.25l0.22-.37c0.73-.78,1.85-0.79,2.82-1.14Zm0.55-.86-0.21.32a8.38,8.38,0,0,0-2.81,1.1l0.4-.67a12.6,12.6,0,0,1,2.68-.87Zm0.15-.25a6.35,6.35,0,0,0-2.59.73l0.26-.43a5.93,5.93,0,0,1,2-.6,3.49,3.49,0,0,0,.63-0.19Zm0.48-.85a15.79,15.79,0,0,1-2.28.67,2.49,2.49,0,0,0-.36.16,0.14,0.14,0,0,0,0-.1c0.87-.79,2.31-0.86,3.11-1.67C71.39,12.46,71.24,12.77,71.08,13.08ZM71.9,11c-0.6.43-1.44,0.52-2.07,0.93a3.88,3.88,0,0,0-.5.4,3.39,3.39,0,0,1,.55-0.8A3,3,0,0,1,71,10.93a2.83,2.83,0,0,0,1-.52Q72,10.72,71.9,11Zm0.27-1.26c0,0.13,0,.26-0.07.39-0.59.62-1.69,0.74-2.36,1.28l0.17-.3c0.21-.28.42-0.57,0.62-0.86A2,2,0,0,1,71,9.91a3.69,3.69,0,0,0,1.22-.71ZM72.29,9h0a4.6,4.6,0,0,1-1.47.87q0.25-.4.49-0.81a12.37,12.37,0,0,1,1.08-.73Zm0.12-.83h0a6.33,6.33,0,0,0-.92.56q0.17-.32.33-0.64a2.6,2.6,0,0,1,.67-0.47Zm0.44-2.49c-0.14.59-.24,1.19-0.34,1.78a1.11,1.11,0,0,0-.52.26,17.15,17.15,0,0,0,.78-2Zm-0.28.28c-0.43.89-.88,1.77-1.35,2.62,0-.62.48-1.13,0.43-1.74Zm-1,1c-0.1.59-.65,1.1-0.45,1.72a0.07,0.07,0,0,0,0,0q-0.45.82-.94,1.62c-0.15-1,.73-1.81.74-2.8ZM70.08,8.36l0.74-.75c-0.29,1-1.16,1.91-.79,2.93a3.18,3.18,0,0,0-.32.55l-0.16.26C69.19,10.34,70.09,9.39,70.08,8.36Zm-0.34.35L70,8.44c-0.2,1.08-1.09,2.16-.51,3.22h0a1.45,1.45,0,0,0-.3.79,0,0,0,0,0,0,0L69,12.72a4.07,4.07,0,0,1,.12-2.26,3.26,3.26,0,0,0,.21-1.31Zm-0.51.54c-0.15,1.27-.76,2.4-0.2,3.68A0.24,0.24,0,0,0,69,13a0.07,0.07,0,0,0,0,0,4.57,4.57,0,0,1,2.13-1.4,4.08,4.08,0,0,0,.63-0.25l-0.12.36c-0.67.76-1.83,0.95-2.7,1.43,0,0.07,0,.15,0,0.23h0c-1,.13-0.51.28-0.63,0.46,0,0-.09,0-0.1-0.05-0.52-1.4.54-2.53,0.46-3.89C68.91,9.66,69,9.46,69.23,9.26ZM68,10.74c0.19-.25.4-0.5,0.61-0.74-0.3,1.24-1.2,2.6-.55,3.83a0.08,0.08,0,0,0,.12,0L68.05,14l-0.42.62-0.13.17c-0.64-1.25.41-2.42,0.22-3.72C67.8,11,67.87,10.85,68,10.74Zm-1.11,1.85,0-.06c0.27-.41.48-0.85,0.73-1.27C67.46,12.45,66.5,14,67.36,15l-0.49.65C66.48,14.65,67.25,13.57,66.84,12.59Zm-0.55.78,0.42-.59a13.76,13.76,0,0,1-.19,2.06,1.67,1.67,0,0,0,.21,1l-0.42.58a3.46,3.46,0,0,1-.05-1.63C66.28,14.31,66.3,13.84,66.29,13.37Zm-0.08.11A17.83,17.83,0,0,0,66,15.87a1,1,0,0,0,.2.69q-0.46.65-.9,1.31a1.23,1.23,0,0,1-.33-1,2.19,2.19,0,0,1,.09-0.33c0.08-.24.2-0.46,0.28-0.7a3,3,0,0,0,.13-1.48C65.72,14.1,66,13.79,66.21,13.48Zm-1.49,1.83,0.65-.79a3.18,3.18,0,0,1-.2,1.37,5.68,5.68,0,0,0-.37,1c-0.09.44,0,1.06,0.44,1.11l-0.47.71c-0.57-.48-0.32-1.25-0.18-2A7,7,0,0,0,64.71,15.31Zm-0.19.24a9.93,9.93,0,0,1-.22,1.4,3.09,3.09,0,0,0-.17,1.2,0.94,0.94,0,0,0,.5.73l-0.38.58c-0.82-.28-0.26-2.51,0-3.52ZM64,16.21c-0.32,1.15-.79,3.19.16,3.4l-0.32.5C62.49,19.06,63.14,17.38,64,16.21ZM54.54,9.63a15.2,15.2,0,0,0,1.3,3.32c0.66,1.26,1.5,2.41,2.14,3.68,1.07,2.13.87,4.63,1.63,6.82-1-2.07-1.18-4.44-2-6.63-0.44-1.22-1.3-2.16-1.82-3.33S55,11.16,54.58,10c0-.23-0.1-0.46-0.16-0.69ZM59.66,24.1a7.79,7.79,0,0,1-1.37-2.3c-0.53-1.4-.85-2.87-1.29-4.3a13.08,13.08,0,0,0-.66-1.76,12.52,12.52,0,0,1-1-2.13C55.13,13,55,12.46,54.92,11.87c0.21,0.55.44,1.09,0.65,1.6,0.6,1.4,1.58,2.52,2,4C58.26,19.66,58.45,22.12,59.66,24.1ZM54.28,8.9a0,0,0,0,0,0,0c0,0.14,0,.28,0,0.42l0-.09c0-.17,0-0.34,0-0.51Zm-0.11-.31s0-.07,0-0.11l0,0.12h0Zm5.28,16.08a1.69,1.69,0,0,1-1.25-1.23c-0.57-1.8-1.16-3.59-1.78-5.38L55.5,15.42a18.7,18.7,0,0,1-.84-2.32,24.69,24.69,0,0,1-.46-3.6l0.07,0.19a10,10,0,0,0,.23,1l0.17,0.92a22.2,22.2,0,0,0,.43,2.32A12.27,12.27,0,0,0,56,15.74a14.34,14.34,0,0,1,.88,2.46c0.61,2.19,1.13,5.25,3.14,6.68C59.86,24.8,59.65,24.73,59.45,24.67Zm0.75-.19a0.11,0.11,0,0,0,0-.12c-1-2.45-.77-5.21-1.91-7.61-0.57-1.19-1.35-2.26-2-3.4a18.35,18.35,0,0,1-1.13-2.42A52.43,52.43,0,0,0,59,16a7.61,7.61,0,0,1,1.68,5.46c-0.1.92-.63,2.12-0.47,3.1Zm-4.18,7a123,123,0,0,1-8.32-12.21c-0.59-1-1.19-1.95-1.7-3a32.19,32.19,0,0,1-1.35-3.47,15.64,15.64,0,0,0-1-2.28A15.91,15.91,0,0,1,45.09,13a59.85,59.85,0,0,0,3.38,5.76Q52.25,24.93,56.09,31,56.06,31.25,56,31.49Zm0.11-.72q-3.75-6.21-7.57-12.38c-0.6-1-1.2-1.93-1.83-2.88a27.83,27.83,0,0,1-1.54-2.84,18.1,18.1,0,0,0-2.1-3.2c0.21,0.18.41,0.37,0.6,0.57a16.27,16.27,0,0,1,2.16,2.72,26.13,26.13,0,0,0,1.68,2.65c0.68,0.86,1.41,1.68,2.06,2.57A52.72,52.72,0,0,1,56.2,30.11C56.18,30.33,56.16,30.55,56.13,30.77Zm0.12-1.12a47.88,47.88,0,0,0-6.34-11.74c-0.68-.93-1.43-1.79-2.14-2.68s-1.24-2-1.9-3c-0.26-.38-0.54-0.76-0.84-1.12,0.56,0.56,1.11,1.13,1.64,1.73,1.32,1.5,2.65,3,3.85,4.6a41.81,41.81,0,0,1,5.71,10.59,0.09,0.09,0,0,0,.06.06Q56.3,28.89,56.24,29.65ZM43,8.4a14.39,14.39,0,0,1,3.16,2.76,22.12,22.12,0,0,0,3.22,2.5,13.31,13.31,0,0,1,3,3,19.27,19.27,0,0,1,3.11,6.09,25.85,25.85,0,0,0-1.17-2.36,22.8,22.8,0,0,0-3.38-4.62c-1.46-1.54-3.12-2.91-4.66-4.37-0.84-.79-1.68-1.58-2.55-2.34-0.29-.25-0.58-0.51-0.89-0.77Zm-1.63-.91,0.21,0.14C42.24,8.24,43,8.77,43.72,9.4s1.54,1.44,2.31,2.17c1.51,1.44,3.12,2.79,4.56,4.29A22.92,22.92,0,0,1,54,20.51a32.46,32.46,0,0,1,2,4.73,19.17,19.17,0,0,1,.25,2.31,41.15,41.15,0,0,0-5.44-10.17c-1.21-1.64-2.57-3.19-3.94-4.7a24.23,24.23,0,0,0-4.27-4,7.39,7.39,0,0,0-.75-0.59Q41.61,7.77,41.33,7.49Zm7.62,33.06c-1.25-.51-2-2.18-2.56-3.3s-1.19-2.55-1.93-3.76a52.79,52.79,0,0,0-3.37-4.8,110.36,110.36,0,0,0-8.32-9.18c-0.78-.79-1.55-1.58-2.31-2.39a12.38,12.38,0,0,1-2-2.48c-0.54-1-.81-2.07-1.32-3.06l1.05,1.49c1.59,2.26,3.72,3.9,5.75,5.74a51.82,51.82,0,0,1,5.83,6.11,54,54,0,0,1,4.74,7.41C46,35.12,47.56,38,49.33,40.66A2.27,2.27,0,0,1,48.95,40.54Zm2,0.25a0.09,0.09,0,0,0,0-.12,68.16,68.16,0,0,1-5.63-8.78h0a53.86,53.86,0,0,0,5.51,8.89c-0.44,0-.88,0-1.31-0.09a0.06,0.06,0,0,0,0-.05c-3.19-4.75-5.31-10.14-8.68-14.78a45.87,45.87,0,0,0-5.64-6.29c-2-1.92-4.38-3.58-6.1-5.8-0.83-1.07-1.53-2.22-2.32-3.31,0.89,0.9,1.75,1.81,2.59,2.76a45,45,0,0,0,5,4.59,44.19,44.19,0,0,1,9.89,11.53,0,0,0,0,0,0,0A41.07,41.07,0,0,0,34.92,18,49.46,49.46,0,0,1,29.54,13c-1.28-1.44-2.63-2.84-4-4.16l-0.43-.49c8.11,5.78,15.31,12.68,20.46,21.29a0,0,0,0,0,0,0A53.52,53.52,0,0,0,35.85,17,72.88,72.88,0,0,0,24.17,7.46L24,7.27l0.77,0.44a151.65,151.65,0,0,1,12.58,9.14A45.37,45.37,0,0,1,47.44,29.42a0,0,0,0,0,.08,0,39.68,39.68,0,0,0-9.8-12.54A104,104,0,0,0,27.53,9.29q4.05,2.3,8.12,4.59c0.23,0.13.48,0.25,0.74,0.38a0.18,0.18,0,0,0,.07.12,40.47,40.47,0,0,1,5.85,5,33.61,33.61,0,0,1,4.57,6.2,35.66,35.66,0,0,1,3.07,7.06c0.15,0.48.29,1,.41,1.45a22.13,22.13,0,0,1-1.8-2.74h0a10.09,10.09,0,0,0,1.87,3c0.37,1.52.62,3,.85,4.58-1.53-2.25-3.22-4.4-4.72-6.67,0,0,0,0,0,0C48,34.79,49.85,37,51.34,39.52l0.2,1.42A2.72,2.72,0,0,0,50.92,40.79Zm15,26.79c-2.71-.53-5.36.77-8.06,0.35-3.19-.5-4-4-4.49-6.71q-0.11-.65-0.23-1.29,0.45,1.44.93,2.87c0.53,1.57,1.24,3,2.85,3.67,2.88,1.2,6.57-.21,9.33,1.19Zm1,0.27c-2.45-1.81-6-.55-8.81-1.22a4.71,4.71,0,0,1-2.41-1.34,7.8,7.8,0,0,1-1.39-2.8C53.89,61.24,53.47,60,53,58.76q0.78,1.56,1.69,3c0.86,1.39,1.81,3.06,3.41,3.71a4.91,4.91,0,0,0,2.44.2,8.19,8.19,0,0,1,3.75.15A10.38,10.38,0,0,1,68,68.25,9.15,9.15,0,0,0,66.93,67.85ZM53.76,57.29a0.1,0.1,0,0,0,.11,0c0.21,0.35.41,0.69,0.63,1,1.41,2,3.44,2.44,5.72,2.84a17.77,17.77,0,0,1,12.16,9,25.8,25.8,0,0,1,1.77,3.75,22,22,0,0,0-7.9-8.71,0,0,0,0,0-.05.08,26.53,26.53,0,0,1,8.72,10.91L75,76.43c-1.44-3-3.33-6-6.13-7.7a12.7,12.7,0,0,0-3.47-2.63,7.18,7.18,0,0,0-2.63-.74c-1-.07-2,0.16-3,0.12-2.3-.08-3.54-2.12-4.64-3.87s-2-3.48-2.95-5.27c1.82,1.85,2.78,4.36,4.68,6.15A6,6,0,0,0,60,64.1a24.62,24.62,0,0,1,4.72.81,0.07,0.07,0,0,0,.06-0.13c-1.13-.71-2.6-0.68-3.88-0.82a6.27,6.27,0,0,1-4.3-2.13,12.36,12.36,0,0,1-1-1.3c0.13,0.13.26,0.25,0.4,0.37A6.86,6.86,0,0,0,60,62.31c2,0.21,3.7.47,5.24,1.83,0.09,0.08.22,0,.14-0.12a6.58,6.58,0,0,0-3.78-1.8c-1.85-.32-3.73-0.37-5.23-1.65C54.65,59.12,53.72,57,52,55.61A6.77,6.77,0,0,1,53.76,57.29Zm7.58-31.82-0.31.6h0ZM59.4,29.16q0.7-1.39,1.43-2.76h0L60.53,27q-1.67,3.27-3.23,6.6l0-.13Q58.31,31.32,59.4,29.16ZM50.6,47q-1.49,3.66-2.87,7.37l-0.47-.45a0.1,0.1,0,0,0-.05,0L47,53.73a19.41,19.41,0,0,1-1.62-1.22,6.9,6.9,0,0,1-1.86-3.34c-0.61-2.06-2.18-3.17-3.74-4.52A126.89,126.89,0,0,0,28.58,36c1.08-.65,2.17-1.3,3.24-2,1.2,1.32,2.33,2.72,3.48,4.09q1.51,1.79,3,3.57a43.5,43.5,0,0,0,3.55,3.9A5.56,5.56,0,0,0,45.63,47C47.27,47,49.29,45.69,50.6,47ZM25.87,35.45l0.05,0,0.31-.15c-0.19.13-.37,0.28-0.55,0.43h0l-0.13,0Zm-0.27-.09,0.26-.19-0.2.16Zm-0.91-2.21a2.3,2.3,0,0,1-.29-0.93L24.66,32a2.68,2.68,0,0,0,1.08,1.95L25.54,34A2.31,2.31,0,0,1,24.69,33.15Zm0.54,0.9-0.4.13a2.44,2.44,0,0,1-.5-0.72,2.34,2.34,0,0,1-.14-1l0,0A2.36,2.36,0,0,0,25.24,34.05ZM25,31.64a24.56,24.56,0,0,1,2.31-1.56l0.5-.34c0.87,1,1.8,2,2.74,3-0.61.12-1.22,0.26-1.83,0.39-0.87.2-1.73,0.41-2.59,0.66A2.62,2.62,0,0,1,25,31.64Zm3-4.16a34.79,34.79,0,0,1-2.62-3.58,10,10,0,0,1-1-2.66,18.13,18.13,0,0,0,4,6.2Zm0.1,1.05,0,0h0Zm-0.13.12a0.08,0.08,0,0,0,0,0l-0.06,0h0Zm-0.33-.28-0.08-.1,0.36-.07Zm0.27,0.15-0.1.05,0,0,0.11-.05Zm0.43-.17h0Zm2.17,5.19-0.55.3H29.86ZM28,35.09l0.17-.14,0.7-.45Zm0.21,1.15c4,2.9,8,5.94,11.84,9a12.37,12.37,0,0,1,2.46,2.26,5.62,5.62,0,0,1,.77,1.7,80.45,80.45,0,0,0-7.62-6.92c-2.48-2.05-5-4-7.59-6Zm0.07-1.91,1.1-.59,0.2,0Q28.95,34,28.3,34.33Zm-1.05.16-0.44.22,0.14-.1ZM45.49,53.08c-0.35-.18-0.7-0.37-1-0.57-0.87-.52-1.72-1.09-2.55-1.67-1.78-1.26-3.49-2.63-5.16-4-3.61-3-7-6.27-10.75-9.14l0.75-.49h0C33.12,42.28,38.52,48.76,45.49,53.08ZM26,34.93L25.92,35,26,34.9A0.05,0.05,0,0,0,26,34.93Zm-0.12,2.77c3.41,3.23,7.15,6.17,10.73,9.21C38.33,48.34,40,49.72,41.8,51q1.36,1,2.78,1.83l1.07,0.65a21,21,0,0,1-4.13-2.23,55.52,55.52,0,0,1-5.36-4.18c-1.82-1.52-3.66-3-5.51-4.49-1-.77-1.92-1.55-2.9-2.3l-1.47-1.12A3.71,3.71,0,0,0,25,38.33Zm0.91-.6,0.81-.51c2.47,2.45,5.18,4.69,7.79,7s5.29,4.62,7.93,6.93c0,0,0,0,0,0-2.65-2.38-5.28-4.77-7.93-7.15s-5.06-4.67-7.74-6.8l0.3-.18c2.43,2,4.9,3.91,7.32,5.91,2.74,2.26,5.34,4.65,7.94,7.06a0.05,0.05,0,0,0,.06,0,10.56,10.56,0,0,0,.56,1.55A6.53,6.53,0,0,0,45.67,53C38.64,48.65,33.52,41.94,26.84,37.11Zm4.28-3.63,0.1-.06h0Zm8.1,8.34,0.4,0.43a17.14,17.14,0,0,0,6.24,4.5,4.41,4.41,0,0,1-2-.29c-1.58-.64-2.5-2.15-3.56-3.4ZM30.3,28.09L30.5,28c0.4,0.41.81,0.82,1.22,1.22a0.06,0.06,0,0,0,.09-0.08c-0.38-.42-0.77-0.83-1.17-1.23l0.24-.16,2.33,1.86a0.08,0.08,0,0,0,.08,0,54.51,54.51,0,0,1,4.47,3.35A47.69,47.69,0,0,1,42,37.11c1.29,1.43,2.52,2.92,3.7,4.44s2.15,3,3.35,4.44l-0.27-.11c-1.53-1.54-3-3.16-4.47-4.72a0,0,0,0,0,0,0,36,36,0,0,0,4.3,4.57A11.07,11.07,0,0,1,45.34,43c-1.32-1.51-2.6-3.06-4-4.53A58.27,58.27,0,0,0,32,30.23a0.06,0.06,0,0,0-.06.1,83.3,83.3,0,0,1,10,9.1c2,2.2,3.85,5.47,6.71,6.68l-0.27,0a6.48,6.48,0,0,1-3.7-2.09c-1.13-1.09-2.22-2.22-3.32-3.33s-2.19-2.18-3.29-3.27-2.08-2.19-3.23-3.14c0,0-.1,0-0.07.08,1.11,1.34,2.44,2.53,3.66,3.77l3.71,3.73c1.36,1.35,3.12,3.61,5.17,4.28-2.64-.24-4.68-2.76-6.48-4.56C38.66,39.37,36.43,37,34,34.92c0,0-.09,0-0.06.07,1.19,1.35,2.53,2.59,3.81,3.85s2.66,2.6,4,3.89c1.62,1.56,3.52,3.66,5.88,3.72-0.45.1-.9,0.2-1.35,0.26h0c-2.84-1-5-3-7-5.24-1-1.1-2-2.23-3-3.29-0.26-.27-0.52-0.53-0.79-0.79-1-1.22-2-2.43-3.05-3.61l-0.08-.09c0.49-.32,1-0.65,1.44-1,0.22-.16,0-0.46-0.26-0.37h0a18.85,18.85,0,0,0-2.17.25c-1-1.07-2-2.12-3-3.23l0.25-.17a14,14,0,0,0,2,2.09c0.07,0.06.18,0,.11-0.1-0.69-.66-1.35-1.34-2-2.05L28.92,29c0.71,0.73,1.42,1.46,2.17,2.15,0.06,0.05.15,0,.09-0.08C30.49,30.35,29.74,29.65,29,29l0.35-.23a26.19,26.19,0,0,0,2.07,2c0.06,0,.14,0,0.09-0.1a25.93,25.93,0,0,0-2-1.94l0.38-.26a17.4,17.4,0,0,0,1.4,1.44,0.05,0.05,0,0,0,.07-0.07,17.4,17.4,0,0,0-1.38-1.44l0.23-.16h0A0.07,0.07,0,0,0,30.3,28.09Zm-0.05-.92,0,0-0.18,0L28.6,25.81Zm-3.67-3.1L28,25.28l1.87,2-0.4.05a24.35,24.35,0,0,1-3.54-3.9C26.12,23.65,26.35,23.87,26.58,24.07Zm-2.42-3.85A5.55,5.55,0,0,0,25.53,23,19.18,19.18,0,0,0,29,27.23a0,0,0,0,0,0,.09,0,0,0,0,0,0,0l0.07,0.06-0.55.05A24,24,0,0,1,24.26,21c0-.23-0.09-0.46-0.12-0.69V20.23Zm0.51,3.45A5,5,0,0,1,24,21.06c0.32,2.44,2,4.76,3.7,6.46l-0.47.09h0l0,0-0.16,0A36.26,36.26,0,0,1,24.66,23.67Zm-0.41,6.45a4.47,4.47,0,0,1,2.44-1.62l0.11,0,0.35,0.45L27,29a0.06,0.06,0,0,0,.06.11l0.2-.11,0.05,0.06c-0.78.49-1.56,1-2.32,1.5-0.19.13-.38,0.27-0.56,0.42a8.15,8.15,0,0,1,1.18-1,0.09,0.09,0,0,0-.1-0.15,6.16,6.16,0,0,0-1.06.85,4.67,4.67,0,0,1,.44-0.51,9.14,9.14,0,0,1,1.85-1.27,0.12,0.12,0,0,0-.08-0.23,4.93,4.93,0,0,0-2.57,1.84A3.18,3.18,0,0,1,24.25,30.13Zm-0.31,2.74a2.18,2.18,0,0,0,.65,1.38l-0.59.2A1.5,1.5,0,0,1,23.94,32.87Zm-0.38,3.41a4.46,4.46,0,0,0-2.13,2q0-.15.06-0.3a5.69,5.69,0,0,1,2.87-2.24,0,0,0,0,0,0,0,3.82,3.82,0,0,0-2.59,1.46c0.59-1.25,1.87-1.73,3.12-2.14l1-.3a5.73,5.73,0,0,0-.56.32h0l-0.38.27a0.05,0.05,0,0,0,0,0l-0.33.23a0,0,0,0,0,.05.08l0.78-.47L25.76,35c-0.17.14-.34,0.28-0.5,0.43a3,3,0,0,0-.41.37,0,0,0,0,0,.06.07l0.47-.34a0.09,0.09,0,0,0,0,0,5.44,5.44,0,0,0-.4.4,9,9,0,0,0-3.59,2.91,6.75,6.75,0,0,1,2.21-2.54S23.6,36.26,23.57,36.27Zm-2.22,3.13a14.76,14.76,0,0,1,1.81-1.89,12.82,12.82,0,0,1,2-1.3v0l-0.46.49a8.11,8.11,0,0,0-3.22,3.68C21.37,40.07,21.35,39.74,21.35,39.41Zm0.22,2.07c0-.14,0-0.27-0.07-0.41A8.56,8.56,0,0,1,23.66,38a11.61,11.61,0,0,1,1-.81,12.92,12.92,0,0,0-1.05,1.05A6.64,6.64,0,0,0,21.57,41.48ZM44.44,60.4a5.48,5.48,0,0,0-.91,0h0c-0.36-.22-0.73-0.43-1.1-0.64a0,0,0,0,0,0,0c0.33,0.21.66,0.43,1,.63l-0.37,0a5.69,5.69,0,0,1-.63,0c-3.07-2.45-6-5.12-9.18-7.45l0.29,0,0.61-.06a50.7,50.7,0,0,1,7,6.05,0,0,0,0,0,0,0,25.9,25.9,0,0,0-6.8-6q0.59,0,1.17,0a12.53,12.53,0,0,0,1.7,1.58l2.11,1.87c1.33,1.17,2.61,2.41,4,3.55,0,0,0,0,0,0C42,58.5,40.65,57.3,39.33,56l-1.93-1.82a17.14,17.14,0,0,0-1.53-1.42h0.91c2.64,2.43,5.14,5,7.68,7.53a0.07,0.07,0,0,0,.11-0.1c-2.4-2.54-4.86-5.05-7.43-7.43l1.23,0q2.22,2.08,4.26,4.37a4.48,4.48,0,0,1,1,1.52,3.52,3.52,0,0,0,.67,1c0.22,0.27.46,0.52,0.7,0.76a2.45,2.45,0,0,0-.47-0.13A6.68,6.68,0,0,1,43.83,60h0C44,60.16,44.24,60.27,44.44,60.4ZM24.34,44.35a22.44,22.44,0,0,0,3.33,2.5c2.42,1.54,5,2.89,7.05,4.92-0.59-.1-1.19-0.2-1.78-0.29l-0.29,0a0,0,0,0,0,0-.06,70.23,70.23,0,0,1-6.11-4A19.81,19.81,0,0,1,24.1,45c-0.34-.39-0.67-0.8-1-1.22s-0.52-.89-0.85-1.28A4.89,4.89,0,0,1,22.38,42,9.58,9.58,0,0,0,24.34,44.35Zm-1.89-2.62c0-.14.09-0.27,0.14-0.41a13.23,13.23,0,0,0,4.23,3.85c2.08,1.36,4.14,2.72,6.08,4.28,1,0.81,2,1.65,3,2.51L35,51.82A31.83,31.83,0,0,0,28.48,47,28.51,28.51,0,0,1,25,44.58a15.46,15.46,0,0,1-1.54-1.51C23.1,42.64,22.79,42.17,22.45,41.73Zm11,10.35H33.31l0.14,0h0ZM33,53c2.91,2.61,6.09,4.93,9.11,7.4a5.57,5.57,0,0,1-3.32-1.71c-2.06-1.95-4.11-3.86-6.34-5.62Zm4.16-.8L36.28,52q-1.28-1.15-2.6-2.25a63.59,63.59,0,0,0-6-4.38,18.78,18.78,0,0,1-5-4.22l0.1-.23a5.79,5.79,0,0,0,2,1.44C26.9,43.74,29,45.24,31,46.77c2.31,1.72,4.54,3.54,6.66,5.47ZM22.24,42.93A9,9,0,0,0,23.69,45,17.34,17.34,0,0,0,26,47.28a33.4,33.4,0,0,0,6.58,4.14l-1.93-.27a0.08,0.08,0,0,0,0-.11,24.73,24.73,0,0,1-4.75-3.32A38.09,38.09,0,0,1,22.34,44,4.11,4.11,0,0,1,22.24,42.93ZM31.18,52h0Zm-3.41-2.37A22.94,22.94,0,0,1,24,46.83a6.49,6.49,0,0,1-1.53-2.43,22.24,22.24,0,0,0,7.84,6.71L29.77,51Q28.78,50.34,27.77,49.67ZM24.5,51.94c1.07-1,2.55-.72,3.88-0.53a9.5,9.5,0,0,0-1.62,0A4.72,4.72,0,0,0,24,52.53,3.29,3.29,0,0,1,24.5,51.94Zm-1,1.71c1.14-1.7,2.85-2,4.67-1.89a8.67,8.67,0,0,0-4.71,2Zm-0.1.33a11.21,11.21,0,0,1,6.53-2.07l0.35,0,0.17,0.13a16.73,16.73,0,0,0-7.09,2.08Zm-0.08.34a20.66,20.66,0,0,1,6.94-1.92,9,9,0,0,0-1.5.6l0,0c-1.26.27-2.51,0.59-3.76,0.91a6.76,6.76,0,0,0-1.69.58Zm4.53,2.45a31.38,31.38,0,0,1,5.69,2,36,36,0,0,1,4.75,2.8c1.41,1,2.75,2,4.18,3,0.23,0.26.44,0.53,0.65,0.8-3.46-1.08-6.16-3.73-9.28-5.5a38.07,38.07,0,0,0-4.08-2c-0.88-.37-1.77-0.71-2.67-1-0.41-.15-0.83-0.28-1.23-0.44A2,2,0,0,1,25,55.88a0.77,0.77,0,0,1,.41-1.26l0,0,0.32-.08C25.35,55.62,26.91,56.53,27.8,56.77Zm7,2.48a26.88,26.88,0,0,0-4.33-1.95C29,56.77,25.83,56.6,26,54.45l0.53-.14a7.84,7.84,0,0,0,3.57,2.51A51.32,51.32,0,0,1,35.39,59a25.15,25.15,0,0,1,6.35,4.77A54.61,54.61,0,0,0,34.81,59.24Zm3.65,6.47c-2.68-1.22-5.21-2.78-7.81-4.15-1.25-.66-2.49-1.32-3.74-2a11.49,11.49,0,0,1-3.44-2,2,2,0,0,1-.55-1.28h0c0.42,0.94,1.84,1.67,2.57,2.08,1.74,1,3.62,1.72,5.45,2.52A28,28,0,0,1,36.38,64,17.91,17.91,0,0,0,40,66.21,6.66,6.66,0,0,1,38.45,65.71Zm2.61,0.6A12.81,12.81,0,0,1,36.83,64a26.69,26.69,0,0,0-4.25-2.6C31,60.64,29.41,60,27.83,59.3A25.59,25.59,0,0,1,25.28,58c-0.83-.5-2-1.13-2.25-2.12V55.72l0-.08a1.3,1.3,0,0,1,.3-0.33,0.7,0.7,0,0,0,0,.23c0.13,0.77,1.51,1.38,2.09,1.72a55.63,55.63,0,0,0,6,2.86,28.61,28.61,0,0,1,6,3.42,13.28,13.28,0,0,0,4.57,2.7A7.38,7.38,0,0,1,41.07,66.31Zm2.59,0a1.87,1.87,0,0,0-.89-0.11c-1.84-.32-3.32-1.54-4.77-2.64A25,25,0,0,0,33.6,60.8C32,60,30.34,59.38,28.71,58.64c-0.9-.41-1.79-0.84-2.64-1.32-0.38-.21-0.75-0.43-1.11-0.67s-0.43-.29-0.64-0.44l-0.21-.15Q23.43,55.73,24,55a7.06,7.06,0,0,1,.75-0.22,1,1,0,0,0-.18.5,1.35,1.35,0,0,0,1,1.26c2.11,0.93,4.32,1.55,6.39,2.57a41.43,41.43,0,0,1,5.28,3.2c1.85,1.29,3.8,2.77,6,3.28h0l0.4,0.55Zm0.09-.3A22.37,22.37,0,0,0,36.42,59a28.68,28.68,0,0,0-4.91-2.19,10,10,0,0,1-4.59-2.62l2-.48c1-.22,2-0.42,3-0.57a63,63,0,0,1,5.3,4.53c1.13,1.08,2.34,2.5,3.91,2.91,1.26,0.32,3-.43,4.2.2l0.12,0.11Q44.55,63.42,43.75,66Zm1.71-5.21c-0.23-.22-0.47-0.44-0.68-0.68A4.25,4.25,0,0,1,44,59a8.93,8.93,0,0,0-.32-0.92,17.39,17.39,0,0,0-2.28-2.65c-0.78-.86-1.59-1.7-2.4-2.54l-0.25-.26a0.25,0.25,0,0,0-.16-0.22s0,0.3,0,.3,0,0.31,0,.31h0a62.37,62.37,0,0,0-9.88-8.47c-1.09-.7-2.22-1.52-3.35-2.16-0.73-.41-2-1-2.34-1.83a5.47,5.47,0,0,1,1.3-1.61c0.21-.17.43-0.35,0.65-0.51a2.77,2.77,0,0,0,.86.9l1.7,1.47c0.88,0.76,1.77,1.49,2.67,2.23,1.95,1.6,3.89,3.21,5.87,4.77a55,55,0,0,0,5.58,4.08,24,24,0,0,0,2.61,1.34,14,14,0,0,0,2.26.71,6.74,6.74,0,0,0,.78.32l0.1,0.09,0.28,0.26Q46.51,57.66,45.46,60.75Zm2.25-4a241.17,241.17,0,0,1,9.47-23l0,0.15q-2,4.3-3.86,8.66Q50.35,49.53,47.71,56.71ZM57,51.89c-0.31-.41-0.61-0.92-0.94-1.45a10.54,10.54,0,0,0,4,3.22,17.17,17.17,0,0,0,3.75,1.18l0.18,0C61.42,54.65,58.62,54,57,51.89Zm14.87,4.29a12.11,12.11,0,0,0-3-.88l0,0C67.2,55,65.58,54.89,64,54.56a18.31,18.31,0,0,1-3.53-1.08,13,13,0,0,1-5-4,8.86,8.86,0,0,0-.6-0.79c0.58,0.49,1.11,1.05,1.64,1.57a13.7,13.7,0,0,0,4.23,3.06c2.19,0.92,4.57.85,6.9,1a10.26,10.26,0,0,1,6.51,2.55,14.66,14.66,0,0,1,2.55,3.06A12.87,12.87,0,0,0,71.87,56.18Zm-2.13-2c-2.47-.47-5-0.15-7.5-0.75a12.37,12.37,0,0,1-5.49-3.32,11.36,11.36,0,0,0-2.81-2.25l-0.11-.07c1.89,0.56,3.24,2.1,4.66,3.47a6.67,6.67,0,0,0,5.12,1.85c2.28-.05,4.58-0.58,6.8.15a10.13,10.13,0,0,1,5.12,4,15.91,15.91,0,0,1,1.14,2.1A10.8,10.8,0,0,0,69.74,54.16ZM78,61.87a31.41,31.41,0,0,0-2-4.39A10,10,0,0,0,65.7,52.64a16.71,16.71,0,0,1-3.74.08,5.93,5.93,0,0,1-3.44-1.83c-1.53-1.51-3.29-3.46-5.63-3.47a0.14,0.14,0,0,0,0-.06h0c2.42-.63,4.08,1.78,5.5,3.29a5.46,5.46,0,0,0,5.13,1.71c1.14-.16,2.25-0.47,3.4-0.6a7.67,7.67,0,0,1,3.51.42,10.81,10.81,0,0,1,5.44,4.09,23.42,23.42,0,0,1,2.13,5.7Zm-1.58-5.2a10.64,10.64,0,0,0-4.63-4.2,9.26,9.26,0,0,0-6.21-.77,13.53,13.53,0,0,1-3.82.45,5.26,5.26,0,0,1-3.44-2.06c-1.31-1.49-3-3.48-5.21-2.93A2.66,2.66,0,0,1,54.55,47a4.15,4.15,0,0,1,1.78.5c1.22,0.78,1.73,2.27,2.77,3.22a4.42,4.42,0,0,0,3.48,1c1.43-.13,2.71-0.8,4.12-1,2.66-.36,4.81.86,6.84,2.37a11.63,11.63,0,0,1,2,1.77,12.45,12.45,0,0,1,2,3.4,16.08,16.08,0,0,1,.89,4.15A32,32,0,0,0,76.45,56.67Z"/><path d="M70.84,83.25c-1.64-2.32-3.24-4.68-4.84-7-0.17-.25-0.53,0-0.36.29,1.06,1.54,2.12,3.08,3.17,4.63q-0.53-.45-1.11-0.84a12.72,12.72,0,0,0-2.78-3.57,0,0,0,0,0,0,0A15,15,0,0,1,67.33,80q-0.46-.3-0.94-0.57A5.57,5.57,0,0,0,63.18,77a0,0,0,0,0,0,0A6.56,6.56,0,0,1,65.9,79.2L65,78.76c-1.23-1.32-3-1.82-4.63-2.63a0.05,0.05,0,0,0,0,.09,18.34,18.34,0,0,0,2.37,1.18,7.23,7.23,0,0,1,1.56,1A23.2,23.2,0,0,0,59.41,77a0.11,0.11,0,0,0,0,.2c2,0.85,4.08,1.41,6,2.39h0a0.1,0.1,0,0,0,.09,0,14.5,14.5,0,0,1,5.37,4.51c0.19,0.28.59-.05,0.41-0.33S71,83.44,70.84,83.25Z"/><path d="M57.4,75c-1.69-.53-2.46-1.77-3.4-3.17a5.56,5.56,0,0,0-2.11-2.06c-0.06-.2-0.12-0.4-0.19-0.59A12.11,12.11,0,0,0,51,67.75a6.14,6.14,0,0,1,.94.67,8.14,8.14,0,0,1,1,1.18c0.59,0.81,1.11,1.67,1.73,2.46,1.48,1.87,3.62,2.79,5.79,3.62a0.16,0.16,0,0,0,.1-0.31,20.13,20.13,0,0,1-3.8-1.8,9.32,9.32,0,0,1-2.39-2.41c-0.87-1.21-2-3.25-3.55-3.69a10.45,10.45,0,0,0-1.44-2,14.32,14.32,0,0,1,3.37,2.85A40.79,40.79,0,0,0,55.72,72a6.92,6.92,0,0,0,3.54,1.86c1.67,0.34,3.4.45,4.52,1.9A0.14,0.14,0,0,0,64,75.58a4.68,4.68,0,0,0-3.34-1.82,14,14,0,0,1-2.61-.59,6.73,6.73,0,0,1-2.27-1.58c-1.13-1.15-2-2.54-3-3.73a10.6,10.6,0,0,0-3.46-2.55,0,0,0,0,0,0,0,9.36,9.36,0,0,0-1.35-1.13,0,0,0,0,0-.06.07,13.71,13.71,0,0,1,3.7,6.47c0.43,1.92.77,4.75,3.1,5.3a0.27,0.27,0,0,0,.17-0.52,3.61,3.61,0,0,1-2-2.17,5.9,5.9,0,0,0,2.82,2.3,0.07,0.07,0,0,0,.06-0.13,12.7,12.7,0,0,1-1.95-1.37,9.56,9.56,0,0,1-1.09-1.25c-0.14-.42-0.24-0.86-0.34-1.3a8,8,0,0,0,3.81,3.7c0.13,0,.19-0.12.1-0.2-0.77-.65-1.63-1.14-2.34-1.87a14.35,14.35,0,0,1-1.67-2.14C52.13,70.72,52,70.36,51.95,70c1.17,0.74,1.79,2.05,2.58,3.19,0.65,0.94,1.6,2,2.84,2.06A0.12,0.12,0,0,0,57.4,75Z"/><text x="0" y="115" fill="#000000" font-size="5px" font-weight="bold" font-family="'Helvetica Neue', Helvetica, Arial-Unicode, Arial, Sans-serif">Created by Victoria Popa</text><text x="0" y="120" fill="#000000" font-size="5px" font-weight="bold" font-family="'Helvetica Neue', Helvetica, Arial-Unicode, Arial, Sans-serif">from the Noun Project</text></svg>